# xmcd CD database file
#
# Track frame offsets:
#	150
#	17788
#	39658
#	59986
#	76897
#	96731
#	116148
#	144673
#	168155
#
# Disc length: 2582 seconds
#
# Revision: 1
# Processed by: cddbd v1.5.1PL2 Copyright (c) Steve Scherf et al.
# Submitted via: CDex 1.51
#
DISCID=820a1409
DTITLE=Lacuna Coil - in a Reverie
DYEAR=1999
DGENRE=Gothic Rock
TTITLE0=Circle
TTITLE1=Stately Lover
TTITLE2=Honeymoon Suite
TTITLE3=My Wings
TTITLE4=To Myself I Turned
TTITLE5=Cold
TTITLE6=Reverie
TTITLE7=Veins Of Glass
TTITLE8=Falling Again
EXTD=YEAR: 1999
EXTT0=
EXTT1=
EXTT2=
EXTT3=
EXTT4=
EXTT5=
EXTT6=
EXTT7=
EXTT8=
PLAYORDER=
